# Blender 4.2.3 LTS
# www.blender.org
mtllib орех.mtl
g орех_Икосфера
v 0.006027 -0.048895 -0.004446
v 0.051715 -0.008142 0.028748
v -0.011424 -0.008142 0.049263
v -0.050446 -0.008142 -0.004446
v -0.011424 -0.008142 -0.058155
v 0.051715 -0.008142 -0.037640
v 0.023478 0.057800 0.049263
v -0.039660 0.057800 0.028748
v -0.039660 0.057800 -0.037640
v 0.023478 0.057800 -0.058155
v 0.062500 0.057800 -0.004446
v 0.006027 0.098553 -0.004446
v -0.004230 -0.037885 0.027123
v 0.032882 -0.037885 0.015065
v 0.022624 -0.013931 0.046634
v 0.059736 -0.013931 -0.004446
v 0.032882 -0.037885 -0.023957
v -0.027167 -0.037885 -0.004446
v -0.037424 -0.013931 0.027123
v -0.004230 -0.037885 -0.036015
v -0.037424 -0.013931 -0.036015
v 0.022624 -0.013931 -0.055526
v 0.066076 0.024829 0.015065
v 0.066076 0.024829 -0.023957
v 0.006027 0.024829 0.058693
v 0.043139 0.024829 0.046634
v -0.054021 0.024829 0.015065
v -0.031085 0.024829 0.046634
v -0.031085 0.024829 -0.055526
v -0.054021 0.024829 -0.023957
v 0.043139 0.024829 -0.055526
v 0.006027 0.024829 -0.067585
v 0.049479 0.063589 0.027123
v -0.010570 0.063589 0.046634
v -0.047682 0.063589 -0.004446
v -0.010570 0.063589 -0.055526
v 0.049479 0.063589 -0.036015
v 0.016284 0.087543 0.027123
v 0.039221 0.087543 -0.004446
v -0.020827 0.087543 0.015065
v -0.020827 0.087543 -0.023957
v 0.016284 0.087543 -0.036015
vn -0.0000 -1.0000 -0.0000
vn 0.7437 -0.3936 0.5403
vn -0.2841 -0.3936 0.8743
vn -0.9193 -0.3936 -0.0000
vn -0.2841 -0.3936 -0.8743
vn 0.7437 -0.3936 -0.5403
vn 0.2841 0.3936 0.8743
vn -0.7437 0.3936 0.5403
vn -0.7437 0.3936 -0.5403
vn 0.2841 0.3936 -0.8743
vn 0.9193 0.3936 -0.0000
vn -0.0000 1.0000 -0.0000
vn -0.1808 -0.8109 0.5565
vn 0.4734 -0.8109 0.3440
vn 0.2731 -0.4678 0.8406
vn 0.8838 -0.4678 -0.0000
vn 0.4734 -0.8109 -0.3440
vn -0.5852 -0.8109 -0.0000
vn -0.7150 -0.4678 0.5195
vn -0.1808 -0.8109 -0.5565
vn -0.7150 -0.4678 -0.5195
vn 0.2731 -0.4678 -0.8406
vn 0.9511 -0.0000 0.3090
vn 0.9511 -0.0000 -0.3090
vn -0.0000 -0.0000 1.0000
vn 0.5878 -0.0000 0.8090
vn -0.9511 -0.0000 0.3090
vn -0.5878 -0.0000 0.8090
vn -0.5878 -0.0000 -0.8090
vn -0.9511 -0.0000 -0.3090
vn 0.5878 -0.0000 -0.8090
vn -0.0000 -0.0000 -1.0000
vn 0.7150 0.4678 0.5195
vn -0.2731 0.4678 0.8406
vn -0.8838 0.4678 -0.0000
vn -0.2731 0.4678 -0.8406
vn 0.7150 0.4678 -0.5195
vn 0.1808 0.8109 0.5565
vn 0.5852 0.8109 -0.0000
vn -0.4734 0.8109 0.3440
vn -0.4734 0.8109 -0.3440
vn 0.1808 0.8109 -0.5565
vt 0.631826 0.695203
vt 0.514692 0.684255
vt 0.571487 0.575194
vt 0.429910 0.644994
vt 0.413070 0.741332
vt 0.677112 0.538752
vt 0.674252 0.533479
vt 0.572557 0.654430
vt 0.577696 0.471419
vt 0.585896 0.342407
vt 0.654231 0.478282
vt 0.502988 0.496733
vt 0.339516 0.642074
vt 0.520269 0.499986
vt 0.481826 0.573323
vt 0.454737 0.484205
vt 0.681956 0.370562
vt 0.590209 0.453951
vt 0.569959 0.326336
vt 0.453074 0.379385
vt 0.529597 0.290635
vt 0.536641 0.440696
vt 0.257129 0.455494
vt 0.358296 0.404696
vt 0.340329 0.543509
vt 0.403056 0.554354
vt 0.506419 0.414056
vt 0.635021 0.332673
vt 0.438485 0.492102
vt 0.208485 0.616554
vt 0.389206 0.468424
vt 0.319266 0.514459
vt 0.337988 0.393215
vt 0.479565 0.323416
vt 0.427649 0.395087
vt 0.394783 0.284155
vt 0.619842 0.528711
vt 0.678444 0.540384
vt 0.625374 0.700705
vt 0.423896 0.604820
vt 0.518674 0.579509
vt 0.474130 0.719156
vt 0.304743 0.706391
vt 0.363184 0.652108
vt 0.409350 0.791081
vt 0.368242 0.753567
vt 0.448833 0.640180
vt 0.517168 0.734594
vt 0.489941 0.677694
vt 0.347373 0.693570
vt 0.472549 0.675719
vt 0.623793 0.657268
vt 0.540884 0.770132
vt 0.670660 0.531945
vt 0.561022 0.571772
vt 0.583138 0.427713
vt 0.628809 0.715227
vt 0.520084 0.672454
vt 0.277648 0.273207
vt 0.211809 0.425709
vt 0.227519 0.597848
vt 0.288933 0.747853
vt 0.684296 0.363703
vt 0.698264 0.370186
vt 0.667986 0.561287
vt 0.599174 0.418592
vt 0.515377 0.280386
vt 0.531178 0.432790
vt 0.632308 0.323225
vt 0.665323 0.501909
vt 0.269711 0.736431
vt 0.190621 0.433949
vt 0.251596 0.283500
vt 0.402840 0.265049
vt 0.460758 0.537645
vt 0.489756 0.258279
vt 0.558136 0.792299
s 1
usemtl скарлупа
f 1/1/1 14/2/14 13/3/13
f 2/4/2 14/2/14 16/5/16
f 1/1/1 13/3/13 18/6/18
f 1/7/1 18/8/18 20/9/20
f 1/10/1 20/11/20 17/12/17
f 2/4/2 16/5/16 23/13/23
f 3/14/3 15/15/15 25/16/25
f 4/17/4 19/18/19 27/19/27
f 5/20/5 21/21/21 29/22/29
f 6/23/6 22/24/22 31/25/31
f 2/4/2 23/13/23 26/26/26
f 3/14/3 25/16/25 28/27/28
f 4/17/4 27/19/27 30/28/30
f 5/20/5 29/22/29 32/29/32
f 6/23/6 31/25/31 24/30/24
f 7/31/7 33/32/33 38/33/38
f 8/34/8 34/35/34 40/36/40
f 9/37/9 35/38/35 41/39/41
f 10/40/10 36/41/36 42/42/42
f 11/43/11 37/44/37 39/45/39
f 39/46/39 42/47/42 12/48/12
f 39/45/39 37/44/37 42/49/42
f 37/50/37 10/40/10 42/42/42
f 42/51/42 41/52/41 12/53/12
f 42/42/42 36/41/36 41/39/41
f 36/41/36 9/37/9 41/39/41
f 41/54/41 40/55/40 12/56/12
f 41/54/41 35/57/35 40/55/40
f 35/57/35 8/58/8 40/55/40
f 40/36/40 38/33/38 12/59/12
f 40/36/40 34/35/34 38/33/38
f 34/35/34 7/31/7 38/33/38
f 38/33/38 39/60/39 12/59/12
f 38/33/38 33/32/33 39/60/39
f 33/32/33 11/61/11 39/60/39
f 24/30/24 37/50/37 11/62/11
f 24/30/24 31/25/31 37/50/37
f 31/25/31 10/40/10 37/50/37
f 32/29/32 36/41/36 10/40/10
f 32/29/32 29/22/29 36/41/36
f 29/22/29 9/37/9 36/41/36
f 30/63/30 35/38/35 9/37/9
f 30/64/30 27/65/27 35/66/35
f 27/19/27 8/34/8 35/67/35
f 28/27/28 34/35/34 8/34/8
f 28/27/28 25/16/25 34/35/34
f 25/16/25 7/31/7 34/35/34
f 26/26/26 33/32/33 7/31/7
f 26/26/26 23/13/23 33/32/33
f 23/13/23 11/61/11 33/32/33
f 31/25/31 32/29/32 10/40/10
f 31/25/31 22/24/22 32/29/32
f 22/24/22 5/20/5 32/29/32
f 29/22/29 30/63/30 9/37/9
f 29/22/29 21/21/21 30/63/30
f 21/68/21 4/69/4 30/70/30
f 27/19/27 28/27/28 8/34/8
f 27/19/27 19/18/19 28/27/28
f 19/18/19 3/14/3 28/27/28
f 25/16/25 26/26/26 7/31/7
f 25/16/25 15/15/15 26/26/26
f 15/15/15 2/4/2 26/26/26
f 23/13/23 24/71/24 11/61/11
f 23/13/23 16/5/16 24/71/24
f 16/72/16 6/23/6 24/30/24
f 17/73/17 22/24/22 6/23/6
f 17/73/17 20/74/20 22/24/22
f 20/74/20 5/20/5 22/24/22
f 20/74/20 21/21/21 5/20/5
f 20/9/20 18/8/18 21/75/21
f 18/76/18 4/69/4 21/68/21
f 18/6/18 19/18/19 4/17/4
f 18/6/18 13/3/13 19/18/19
f 13/3/13 3/14/3 19/18/19
f 16/72/16 17/73/17 6/23/6
f 16/5/16 14/2/14 17/77/17
f 14/2/14 1/1/1 17/77/17
f 13/3/13 15/15/15 3/14/3
f 13/3/13 14/2/14 15/15/15
f 14/2/14 2/4/2 15/15/15
